<svg width="258" height="64" viewBox="0 0 258 64" fill="none" xmlns="http://www.w3.org/2000/svg">
<path d="M38.2565 0C17.8228 21.8859 17.9295 33.8362 38.2565 54.5459C57.3851 33.9128 58.4093 22.006 38.2565 0Z" fill="url(#paint0_linear_46_54)"/>
<path d="M75.9453 26.8186C57.2587 29.2237 52.4483 35.069 53.7555 53.303C71.3076 50.981 76.6418 45.6118 75.9453 26.8186Z" fill="url(#paint1_linear_46_54)"/>
<path d="M0.472983 26.5964C-0.406874 45.4443 4.50571 51.2038 22.6627 53.0808C23.4274 35.3662 19.0739 29.1729 0.472983 26.5964Z" fill="url(#paint2_linear_46_54)"/>
<path d="M125.109 51.8222L112.45 35.8711L108.533 40.4449V51.8222H101.154V11.8015H108.533V28.9532L123.463 11.8015H132.999L117.389 30.0967L134.362 51.7651L125.109 51.8222Z" fill="#ECECEC"/>
<path d="M141.795 16.6039C140.773 16.6039 139.884 16.2419 139.127 15.5177C138.37 14.7935 137.992 13.8978 137.992 12.8306C137.992 11.7633 138.37 10.8676 139.127 10.1435C139.884 9.38115 140.773 9 141.795 9C142.817 9 143.687 9.38115 144.406 10.1435C145.163 10.8676 145.541 11.7633 145.541 12.8306C145.541 13.8978 145.163 14.7935 144.406 15.5177C143.687 16.2419 142.817 16.6039 141.795 16.6039ZM138.219 23.236H145.201V51.8222H138.219V23.236Z" fill="#ECECEC"/>
<path d="M177.041 51.8222H170.002V34.7277C170.002 33.5461 169.813 32.5742 169.434 31.8118C169.056 31.0495 168.583 30.4397 168.015 29.9823C167.448 29.5249 166.804 29.201 166.085 29.0104C165.404 28.8198 164.723 28.7245 164.042 28.7245C163.36 28.7245 162.679 28.8389 161.998 29.0676C161.355 29.2963 160.749 29.6965 160.182 30.2682C159.652 30.8018 159.217 31.526 158.876 32.4407C158.535 33.3174 158.365 34.4418 158.365 35.8139V51.8222H151.326V23.236H158.365V25.6372C159.273 24.7606 160.352 24.0173 161.601 23.4075C162.85 22.7976 164.231 22.4927 165.745 22.4927C166.766 22.4927 167.921 22.6642 169.207 23.0073C170.532 23.3122 171.762 23.922 172.897 24.8368C174.07 25.7516 175.054 27.0094 175.849 28.6102C176.644 30.1729 177.041 32.2121 177.041 34.7277V51.8222Z" fill="#ECECEC"/>
<path d="M204.238 48.8493C203.254 49.9546 202.081 50.8694 200.718 51.5936C199.394 52.2796 197.823 52.6227 196.007 52.6227C193.812 52.6227 191.825 52.2415 190.046 51.4792C188.306 50.7169 186.811 49.6687 185.562 48.3347C184.351 46.9626 183.405 45.3617 182.724 43.5322C182.08 41.7027 181.759 39.7207 181.759 37.5863C181.759 35.4518 182.08 33.4699 182.724 31.6403C183.405 29.7727 184.351 28.1719 185.562 26.8378C186.811 25.4657 188.306 24.3985 190.046 23.6362C191.825 22.8739 193.812 22.4927 196.007 22.4927C197.823 22.4927 199.394 22.8548 200.718 23.579C202.081 24.2651 203.254 25.1608 204.238 26.2661V23.236H211.22V50.3929C211.22 52.4511 210.823 54.3188 210.028 55.9958C209.233 57.6729 208.136 59.1022 206.735 60.2838C205.373 61.4654 203.727 62.3801 201.797 63.0281C199.905 63.676 197.842 64 195.609 64C193.944 64 192.355 63.8285 190.841 63.4854C189.327 63.1424 187.927 62.666 186.64 62.0561C185.354 61.4463 184.218 60.7221 183.235 59.8836C182.288 59.045 181.55 58.1112 181.021 57.0821L187.038 53.5946C187.568 54.6237 188.589 55.5194 190.103 56.2817C191.617 57.0821 193.509 57.4823 195.78 57.4823C196.991 57.4823 198.107 57.3108 199.129 56.9678C200.151 56.6247 201.04 56.1292 201.797 55.4813C202.554 54.8715 203.14 54.1282 203.557 53.2516C204.011 52.413 204.238 51.4602 204.238 50.3929V48.8493ZM196.177 45.9906C197.35 45.9906 198.429 45.781 199.413 45.3617C200.397 44.9425 201.248 44.3517 201.967 43.5894C202.686 42.8271 203.235 41.9314 203.613 40.9023C204.03 39.8732 204.238 38.7488 204.238 37.5291C204.238 36.3094 204.03 35.2041 203.613 34.2131C203.235 33.184 202.686 32.3073 201.967 31.5832C201.248 30.8209 200.397 30.2301 199.413 29.8108C198.429 29.3915 197.35 29.1819 196.177 29.1819C195.042 29.1819 194.02 29.4106 193.112 29.868C192.203 30.2872 191.409 30.8971 190.728 31.6975C190.084 32.4598 189.573 33.3555 189.195 34.3846C188.854 35.3756 188.684 36.4428 188.684 37.5863C188.684 38.7297 188.854 39.816 189.195 40.8451C189.573 41.8742 190.084 42.7699 190.728 43.5322C191.409 44.2945 192.203 44.9044 193.112 45.3617C194.02 45.781 195.042 45.9906 196.177 45.9906Z" fill="#ECECEC"/>
<path d="M227.551 51.8222C226.151 52.0509 224.845 52.1653 223.634 52.1653C222.612 52.1653 221.685 52.0509 220.853 51.8222C220.02 51.5554 219.301 51.1362 218.696 50.5644C218.128 49.9546 217.674 49.1351 217.333 48.106C217.031 47.0769 216.879 45.781 216.879 44.2183V11.8015H223.918V43.7609C223.918 44.6376 224.183 45.1712 224.713 45.3617C225.28 45.5142 226.227 45.4951 227.551 45.3046V51.8222Z" fill="#ECECEC"/>
<path d="M235.129 23.236L243.417 41.3597L249.774 23.236H257.154L247.22 51.8794C245.744 55.8053 243.719 58.7592 241.146 60.7412C238.573 62.7231 235.507 63.5617 231.95 63.2568V56.3961C233.01 56.5104 233.956 56.4342 234.788 56.1674C235.659 55.9387 236.416 55.5575 237.059 55.0239C237.702 54.5284 238.27 53.9186 238.762 53.1944C239.254 52.4702 239.689 51.7079 240.067 50.9075L227.579 23.236H235.129Z" fill="#ECECEC"/>
<defs>
<linearGradient id="paint0_linear_46_54" x1="37.9804" y1="0" x2="37.9804" y2="54.5459" gradientUnits="userSpaceOnUse">
<stop stop-color="#915EFF"/>
<stop offset="1" stop-color="#613FAA"/>
</linearGradient>
<linearGradient id="paint1_linear_46_54" x1="64.7796" y1="26.8186" x2="64.7796" y2="53.303" gradientUnits="userSpaceOnUse">
<stop stop-color="#915EFF"/>
<stop offset="1" stop-color="#613FAA"/>
</linearGradient>
<linearGradient id="paint2_linear_46_54" x1="11.5604" y1="26.5964" x2="11.5604" y2="53.0808" gradientUnits="userSpaceOnUse">
<stop stop-color="#915EFF"/>
<stop offset="1" stop-color="#613FAA"/>
</linearGradient>
</defs>
</svg>
