<svg width="319" height="112" viewBox="0 0 319 112" fill="none" xmlns="http://www.w3.org/2000/svg">
<g clip-path="url(#clip0_8_2)">
<rect width="319" height="112" fill="black"/>
<path d="M144.965 73.3574L131.899 56.5124L127.607 61.6364V73.3574H118V28.5227H127.607V46.5847L142.915 28.5227H155.213L138.176 48.9545L157.006 73.2934L144.965 73.3574Z" fill="white"/>
<path d="M164.922 34.4793C163.599 34.4793 162.467 34.031 161.528 33.1343C160.631 32.1949 160.183 31.0634 160.183 29.7397C160.183 28.416 160.631 27.3058 161.528 26.4091C162.467 25.4697 163.599 25 164.922 25C166.203 25 167.292 25.4697 168.189 26.4091C169.128 27.3058 169.598 28.416 169.598 29.7397C169.598 31.0634 169.128 32.1949 168.189 33.1343C167.292 34.031 166.203 34.4793 164.922 34.4793ZM160.247 41.3326H169.342V73.3574H160.247V41.3326Z" fill="white"/>
<path d="M204.485 73.3574H195.326V54.2066C195.326 53.0964 195.134 52.1784 194.75 51.4525C194.408 50.6839 193.96 50.0861 193.405 49.6591C192.85 49.1894 192.231 48.8691 191.547 48.6983C190.864 48.5275 190.202 48.4421 189.562 48.4421C188.879 48.4421 188.196 48.5702 187.512 48.8264C186.872 49.0399 186.295 49.4242 185.783 49.9793C185.271 50.4917 184.844 51.1963 184.502 52.093C184.203 52.9897 184.054 54.0999 184.054 55.4236V73.3574H174.895V41.3326H184.054V43.5744C185.078 42.6777 186.231 41.9304 187.512 41.3326C188.836 40.7349 190.266 40.436 191.804 40.436C192.957 40.436 194.259 40.6281 195.711 41.0124C197.205 41.3967 198.593 42.1012 199.874 43.126C201.155 44.1081 202.244 45.4959 203.14 47.2893C204.037 49.0826 204.485 51.3884 204.485 54.2066V73.3574Z" fill="white"/>
<path d="M233.255 70.9236C232.23 71.9483 231.035 72.7596 229.668 73.3574C228.345 73.9552 226.786 74.2541 224.993 74.2541C222.474 74.2541 220.21 73.8271 218.204 72.9731C216.197 72.1191 214.489 70.9449 213.08 69.4504C211.713 67.9559 210.646 66.1839 209.877 64.1343C209.151 62.0847 208.788 59.843 208.788 57.4091C208.788 54.9752 209.151 52.7335 209.877 50.6839C210.646 48.5916 211.713 46.7982 213.08 45.3037C214.489 43.7665 216.197 42.5709 218.204 41.7169C220.21 40.863 222.474 40.436 224.993 40.436C226.786 40.436 228.345 40.7562 229.668 41.3967C231.035 41.9945 232.23 42.8058 233.255 43.8306V41.3326H242.414V71.7562C242.414 74.0193 241.945 76.0902 241.005 77.969C240.109 79.8478 238.849 81.449 237.226 82.7727C235.646 84.1391 233.746 85.1853 231.526 85.9112C229.348 86.6371 226.978 87 224.416 87C222.538 87 220.723 86.8078 218.972 86.4236C217.221 86.0393 215.599 85.5055 214.104 84.8223C212.653 84.1391 211.372 83.3278 210.261 82.3884C209.151 81.449 208.297 80.4242 207.699 79.314L215.513 74.7665C216.069 75.834 217.157 76.7307 218.78 77.4566C220.403 78.2252 222.367 78.6095 224.673 78.6095C227.149 78.6095 229.199 77.969 230.821 76.688C232.444 75.4497 233.255 73.8058 233.255 71.7562V70.9236ZM225.249 65.7996C227.64 65.7996 229.562 65.0096 231.013 63.4298C232.508 61.8072 233.255 59.7576 233.255 57.281C233.255 54.8471 232.508 52.8829 231.013 51.3884C229.562 49.8512 227.64 49.0826 225.249 49.0826C224.139 49.0826 223.114 49.3175 222.175 49.7872C221.235 50.2142 220.424 50.812 219.741 51.5806C219.1 52.3065 218.588 53.1818 218.204 54.2066C217.862 55.1887 217.691 56.2562 217.691 57.4091C217.691 58.562 217.862 59.6508 218.204 60.6756C218.588 61.7004 219.1 62.5971 219.741 63.3657C220.424 64.0916 221.235 64.6894 222.175 65.1591C223.114 65.5861 224.139 65.7996 225.249 65.7996Z" fill="white"/>
<path d="M260.711 73.3574C259.857 73.4855 259.003 73.5923 258.149 73.6777C257.338 73.7631 256.57 73.8058 255.844 73.8058C254.563 73.8058 253.41 73.6563 252.385 73.3574C251.36 73.0585 250.464 72.5248 249.695 71.7562C248.969 70.9876 248.414 69.9628 248.03 68.6818C247.645 67.4008 247.453 65.7782 247.453 63.814V28.5227H256.612V63.2376C256.612 64.2197 256.911 64.8175 257.509 65.031C258.149 65.2018 259.217 65.1804 260.711 64.9669V73.3574Z" fill="white"/>
<path d="M269.568 41.3326L277.959 59.7789L284.3 41.3326H293.843L283.083 72.9091C281.289 77.5207 278.877 80.958 275.845 83.2211C272.814 85.5269 269.163 86.5089 264.893 86.1674V77.3285C267.156 77.5847 268.949 77.1791 270.273 76.1116C271.639 75.0441 272.728 73.699 273.539 72.0764L259.705 41.3326H269.568Z" fill="white"/>
<path d="M59.0713 25C44.1218 45.2848 43.9517 56.3394 59.0713 74.8494C73.8396 56.0655 74.7125 45.0341 59.0713 25Z" fill="white"/>
<path d="M24.9092 48.5545C25.88 66.0604 30.7644 71.8577 46.9034 74.8494C46.4949 58.2213 41.9934 52.119 24.9092 48.5545Z" fill="white"/>
<path d="M93.0908 48.5545C92.12 66.0604 87.2357 71.8577 71.0966 74.8494C71.5051 58.2213 76.0066 52.119 93.0908 48.5545Z" fill="white"/>
</g>
<defs>
<clipPath id="clip0_8_2">
<rect width="319" height="112" fill="white"/>
</clipPath>
</defs>
</svg>
